<svg height="100%" width="100%" viewBox="0 0 600 450"
     preserveAspectRatio="xMidYMid"
     xmlns="http://www.w3.org/2000/svg"
     xmlns:xlink="http://www.w3.org/1999/xlink">
<!--
   File:        images/lin-wuse-result.svg
   Author:      G. Wade Johnson

   Copyright: 2009 G. Wade Johnson
      You are free to use this code however you like.
 -->
  <title>Chart of wuse Average Performance</title>
  <desc>This chart shows the mean performance of the wuse SVG application
    as a function of update interval size in milliseconds.
  </desc>

  <defs>
    <style type="text/css">
        .heading {
            text-anchor: middle;
            font-family: arial, helvetica, sans-serif;
            font-size: 16px;
        }
        .labels { fill: black; font-size:10px; }
        .title {
            text-anchor: middle;
            font-family: arial, helvetica, sans-serif;
            font-size: 12px;
        }
        .detail, #instructions {
            font-family: arial, helvetica, sans-serif;
            font-size: 10px;
        }
        .rtjust { text-anchor: end; }
        .center { text-anchor: middle; }
        .axes {
            stroke: black;
            stroke-width: 1px;
        }
        .grid {
            stroke: #888;
            stroke-width: 0.5px;
        }
        .background {
            fill: #eef;
            stroke: none;
        }
        .legend { font-size: 12px; fill: black; }
        .legend_bg {
            stroke: black;
            stroke-width: 0.5px;
            fill: #eee;
        }
        .statbox {
            fill: #fff;
            stroke-width: 1px;
        }
        .data0, .marker0 {
            fill: none;
            stroke: #000099;
            stroke-width: 1px;
        }
        .marker0 {
            fill: #000099;
            fill-opacity: 0.6;
            fill-rule: evenodd;
            stroke-width: 0.5px;
        }
        .legend0 {
            fill: #000099;
            stroke: none;
        }
        #points0 .statbox {
            stroke: #000099;
        }
        .data1, .marker1 {
            fill: none;
            stroke: #00FF66;
            stroke-width: 1px;
        }
        .marker1 {
            fill: #00FF66;
            fill-opacity: 0.6;
            fill-rule: evenodd;
            stroke-width: 0.5px;
        }
        .legend1 {
            fill: #00FF66;
            stroke: none;
        }
        #points1 .statbox {
            stroke: #00FF66;
        }
        .data2, .marker2 {
            fill: none;
            stroke: #CC0000;
            stroke-width: 1px;
        }
        .marker2 {
            fill: #CC0000;
            fill-opacity: 0.6;
            fill-rule: evenodd;
            stroke-width: 0.5px;
        }
        .legend2 {
            fill: #CC0000;
            stroke: none;
        }
        #points2 .statbox {
            stroke: #CC0000;
        }
        .highlight { stroke-width: 2px; }
    </style>
    <script type="text/ecmascript"><![CDATA[
        function show( el )
        {
            el.setAttributeNS( null, 'visibility', 'visible' )
        }
        function hide( el )
        {
            el.setAttributeNS( null, 'visibility', 'hidden' )
        }
        function is_hidden( el )
        {
            return 'hidden' == el.getAttributeNS( null, 'visibility' );
        }
        function showdata( n )
        {
            for(var i=0; i < 3; ++i)
            {
                var g = document.getElementById( 'points'+i );
                if(null == g)
                    return;
                if(n == i && is_hidden( g ))
                    show( g );
                else
                    hide( g );
            }
        }
        function hilight( e )
        {
            var t = e.target;
            var match = t.getAttribute( 'class' ).match( /^marker\d+/ );
            if( match !== null )
            {
                t.setAttribute( 'class', match[0] + ' highlight' );
            }
        }
        function unhilight( e )
        {
            var t = e.target;
            var match = t.getAttribute( 'class' ).match( /^marker\d+/ );
            if( match !== null )
            {
                t.setAttribute( 'class', match[0] );
            }
        }
    ]]></script>
  </defs>
  <rect x="0" y="0" width="600" height="450" class="background"/>

  <text x="300" y="15" class="heading">wuse (mean)</text>
  <path class="grid" d=" M40,415v4 L40,25 M99.44,415v4 L99.44,25 M158.89,415v4 L158.89,25 M218.33,415v4 L218.33,25 M277.78,415v4 L277.78,25 M337.22,415v4 L337.22,25 M396.67,415v4 L396.67,25 M456.11,415v4 L456.11,25 M515.56,415v4 L515.56,25 M575,415v4 L575,25"/>
  <line x1="40" y1="415" x2="40" y2="25" class="axes"/>
  <line x1="40" y1="415" x2="575" y2="415" class="axes"/>
  <text x="300" y="440" class="title">Interval Size (ms)</text>
  <text x="12" y="225" class="title" transform="rotate(-90,12,225)">Updates/Sec</text>
  <text x="40" y="428" class="center labels">5</text>
  <text x="99.44" y="428" class="center labels">10</text>
  <text x="158.89" y="428" class="center labels">15</text>
  <text x="218.33" y="428" class="center labels">20</text>
  <text x="277.78" y="428" class="center labels">25</text>
  <text x="337.22" y="428" class="center labels">30</text>
  <text x="396.67" y="428" class="center labels">35</text>
  <text x="456.11" y="428" class="center labels">40</text>
  <text x="515.56" y="428" class="center labels">45</text>
  <text x="575" y="428" class="center labels">50</text>
  <text x="35" y="415" class="rtjust labels">0</text>
  <text x="35" y="376" class="rtjust labels">15</text>
  <text x="35" y="337" class="rtjust labels">30</text>
  <text x="35" y="298" class="rtjust labels">45</text>
  <text x="35" y="259" class="rtjust labels">60</text>
  <text x="35" y="220" class="rtjust labels">75</text>
  <text x="35" y="181" class="rtjust labels">90</text>
  <text x="35" y="142" class="rtjust labels">105</text>
  <text x="35" y="103" class="rtjust labels">120</text>
  <text x="35" y="64" class="rtjust labels">135</text>
  <text x="35" y="25" class="rtjust labels">150</text>
  <path class="grid" d=" M40,415h-4 L575,415 M40,376h-4 L575,376 M40,337h-4 L575,337 M40,298h-4 L575,298 M40,259h-4 L575,259 M40,220h-4 L575,220 M40,181h-4 L575,181 M40,142h-4 L575,142 M40,103h-4 L575,103 M40,64h-4 L575,64 M40,25h-4 L575,25"/>

  <g transform="translate(0,415)" onmouseover="hilight( evt )" onmouseout="unhilight( evt )">
    <path class="data0" d="M40,-277.22 L99.44,-228.43 L158.89,-169.63 L218.33,-129.37 L277.78,-103.66 L337.22,-86.46 L396.67,-74.17 L456.11,-64.91 L515.56,-57.71 L575,-51.95"/>
    <path class="marker0" d="M40,-374.30m-0.2,0 v176.99m0.4,0v-176.99M40,-322.01h-3v89.57h6v-89.57h-3h-3v44.78h6v-44.78h-3"/>
    <path class="marker0" d="M99.44,-255.94m-0.2,0 v89.59m0.4,0v-89.59M99.44,-253.87h-3v50.89h6v-50.89h-3h-3v25.45h6v-25.45h-3"/>
    <path class="marker0" d="M158.89,-172.64m-0.2,0 v12.69m0.4,0v-12.69M158.89,-173.39h-3v7.54h6v-7.54h-3h-3v3.77h6v-3.77h-3"/>
    <path class="marker0" d="M218.33,-129.82m-0.2,0 v1.82m0.4,0v-1.82M218.33,-129.81h-3v0.86h6v-0.86h-3h-3v0.43h6v-0.43h-3"/>
    <path class="marker0" d="M277.78,-103.95m-0.2,0 v1.28m0.4,0v-1.28M277.78,-103.92h-3v0.52h6v-0.52h-3h-3v0.26h6v-0.26h-3"/>
    <path class="marker0" d="M337.22,-86.61m-0.2,0 v0.50m0.4,0v-0.50M337.22,-86.60h-3v0.28h6v-0.28h-3h-3v0.14h6v-0.14h-3"/>
    <path class="marker0" d="M396.67,-74.33m-0.2,0 v0.31m0.4,0v-0.31M396.67,-74.25h-3v0.16h6v-0.16h-3h-3v0.08h6v-0.08h-3"/>
    <path class="marker0" d="M456.11,-65.00m-0.2,0 v0.26m0.4,0v-0.26M456.11,-65.01h-3v0.2h6v-0.2h-3h-3v0.10h6v-0.10h-3"/>
    <path class="marker0" d="M515.56,-57.77m-0.2,0 v0.31m0.4,0v-0.31M515.56,-57.75h-3v0.1h6v-0.1h-3h-3v0.05h6v-0.05h-3"/>
    <path class="marker0" d="M575,-52.00m-0.2,0 v0.26m0.4,0v-0.26M575,-52.03h-3v0.15h6v-0.15h-3h-3v0.07h6v-0.07h-3"/>
    <path class="data1" d="M40,-75.92 L99.44,-74.22 L158.89,-61.75 L218.33,-79.86 L277.78,-58.08 L337.22,-71.69 L396.67,-64.47 L456.11,-59.17 L515.56,-55.31 L575,-50.42"/>
    <path class="marker1" d="M40,-119.50m-0.2,0 v80.60m0.4,0v-80.60M40,-100.27h-3v48.7h6v-48.7h-3h-3v24.35h6v-24.35h-3"/>
    <path class="marker1" d="M99.44,-135.02m-0.2,0 v91.44m0.4,0v-91.44M99.44,-97.94h-3v47.45h6v-47.45h-3h-3v23.73h6v-23.73h-3"/>
    <path class="marker1" d="M158.89,-88.79m-0.2,0 v45.71m0.4,0v-45.71M158.89,-74.58h-3v25.65h6v-25.65h-3h-3v12.82h6v-12.82h-3"/>
    <path class="marker1" d="M218.33,-121.94m-0.2,0 v84.37m0.4,0v-84.37M218.33,-106.22h-3v52.73h6v-52.73h-3h-3v26.36h6v-26.36h-3"/>
    <path class="marker1" d="M277.78,-89.62m-0.2,0 v54.49m0.4,0v-54.49M277.78,-72.73h-3v29.3h6v-29.3h-3h-3v14.65h6v-14.65h-3"/>
    <path class="marker1" d="M337.22,-85.02m-0.2,0 v28.50m0.4,0v-28.50M337.22,-79.27h-3v15.16h6v-15.16h-3h-3v7.58h6v-7.58h-3"/>
    <path class="marker1" d="M396.67,-73.84m-0.2,0 v27.87m0.4,0v-27.87M396.67,-73.24h-3v17.53h6v-17.53h-3h-3v8.77h6v-8.77h-3"/>
    <path class="marker1" d="M456.11,-64.48m-0.2,0 v17.76m0.4,0v-17.76M456.11,-64.58h-3v10.81h6v-10.81h-3h-3v5.41h6v-5.41h-3"/>
    <path class="marker1" d="M515.56,-57.46m-0.2,0 v7.98m0.4,0v-7.98M515.56,-57.73h-3v4.85h6v-4.85h-3h-3v2.42h6v-2.42h-3"/>
    <path class="marker1" d="M575,-52.00m-0.2,0 v12.71m0.4,0v-12.71M575,-53.03h-3v5.22h6v-5.22h-3h-3v2.61h6v-2.61h-3"/>
    <path class="data2" d="M40,-102.08 L99.44,-98.53 L158.89,-95.65 L218.33,-89.28 L277.78,-80.76 L337.22,-80.95 L396.67,-71.46 L456.11,-62.49 L515.56,-54.26 L575,-49.94"/>
    <path class="marker2" d="M40,-136.42m-0.2,0 v64.79m0.4,0v-64.79M40,-117.71h-3v31.25h6v-31.25h-3h-3v15.62h6v-15.62h-3"/>
    <path class="marker2" d="M99.44,-140.74m-0.2,0 v79.95m0.4,0v-79.95M99.44,-119.89h-3v42.73h6v-42.73h-3h-3v21.36h6v-21.36h-3"/>
    <path class="marker2" d="M158.89,-134.94m-0.2,0 v68.28m0.4,0v-68.28M158.89,-115.36h-3v39.42h6v-39.42h-3h-3v19.71h6v-19.71h-3"/>
    <path class="marker2" d="M218.33,-117.26m-0.2,0 v49.79m0.4,0v-49.79M218.33,-105.00h-3v31.44h6v-31.44h-3h-3v15.72h6v-15.72h-3"/>
    <path class="marker2" d="M277.78,-94.30m-0.2,0 v35.57m0.4,0v-35.57M277.78,-93.99h-3v26.47h6v-26.47h-3h-3v13.23h6v-13.23h-3"/>
    <path class="marker2" d="M337.22,-81.56m-0.2,0 v4.78m0.4,0v-4.78M337.22,-81.82h-3v1.74h6v-1.74h-3h-3v0.87h6v-0.87h-3"/>
    <path class="marker2" d="M396.67,-72.15m-0.2,0 v2.78m0.4,0v-2.78M396.67,-72.17h-3v1.42h6v-1.42h-3h-3v0.71h6v-0.71h-3"/>
    <path class="marker2" d="M456.11,-63.52m-0.2,0 v2.68m0.4,0v-2.68M456.11,-63.22h-3v1.45h6v-1.45h-3h-3v0.72h6v-0.72h-3"/>
    <path class="marker2" d="M515.56,-54.42m-0.2,0 v0.37m0.4,0v-0.37M515.56,-54.37h-3v0.23h6v-0.23h-3h-3v0.12h6v-0.12h-3"/>
    <path class="marker2" d="M575,-50.18m-0.2,0 v0.47m0.4,0v-0.47M575,-50.04h-3v0.19h6v-0.19h-3h-3v0.10h6v-0.10h-3"/>
    <g id="points0" class="detail" visibility="hidden">
      <g transform="translate( 50, -292.50 )">
        <rect width="70" height="63" class="statbox"/>
        <text x="3" y="12">Interval: 5</text>
        <text x="3" y="24">Mean: 106.62</text>
        <text x="3" y="36">Min: 75.89</text>
        <text x="3" y="48">Max: 143.96</text>
        <text x="3" y="60">StdDev: 17.22</text>
      </g>
      <g transform="translate( 64.44, -222.5 )">
        <rect width="70" height="63" class="statbox"/>
        <text x="3" y="12">Interval: 10</text>
        <text x="3" y="24">Mean: 87.86</text>
        <text x="3" y="36">Min: 63.98</text>
        <text x="3" y="48">Max: 98.44</text>
        <text x="3" y="60">StdDev: 9.79</text>
      </g>
      <g transform="translate( 123.89, -292.50 )">
        <rect width="70" height="63" class="statbox"/>
        <text x="3" y="12">Interval: 15</text>
        <text x="3" y="24">Mean: 65.24</text>
        <text x="3" y="36">Min: 61.52</text>
        <text x="3" y="48">Max: 66.40</text>
        <text x="3" y="60">StdDev: 1.45</text>
      </g>
      <g transform="translate( 183.33, -222.5 )">
        <rect width="70" height="63" class="statbox"/>
        <text x="3" y="12">Interval: 20</text>
        <text x="3" y="24">Mean: 49.76</text>
        <text x="3" y="36">Min: 49.23</text>
        <text x="3" y="48">Max: 49.93</text>
        <text x="3" y="60">StdDev: 0.17</text>
      </g>
      <g transform="translate( 242.78, -292.50 )">
        <rect width="70" height="63" class="statbox"/>
        <text x="3" y="12">Interval: 25</text>
        <text x="3" y="24">Mean: 39.87</text>
        <text x="3" y="36">Min: 39.49</text>
        <text x="3" y="48">Max: 39.98</text>
        <text x="3" y="60">StdDev: 0.10</text>
      </g>
      <g transform="translate( 302.22, -222.5 )">
        <rect width="70" height="63" class="statbox"/>
        <text x="3" y="12">Interval: 30</text>
        <text x="3" y="24">Mean: 33.25</text>
        <text x="3" y="36">Min: 33.12</text>
        <text x="3" y="48">Max: 33.31</text>
        <text x="3" y="60">StdDev: 0.05</text>
      </g>
      <g transform="translate( 361.67, -292.50 )">
        <rect width="70" height="63" class="statbox"/>
        <text x="3" y="12">Interval: 35</text>
        <text x="3" y="24">Mean: 28.53</text>
        <text x="3" y="36">Min: 28.47</text>
        <text x="3" y="48">Max: 28.59</text>
        <text x="3" y="60">StdDev: 0.03</text>
      </g>
      <g transform="translate( 421.11, -222.5 )">
        <rect width="70" height="63" class="statbox"/>
        <text x="3" y="12">Interval: 40</text>
        <text x="3" y="24">Mean: 24.97</text>
        <text x="3" y="36">Min: 24.90</text>
        <text x="3" y="48">Max: 25.00</text>
        <text x="3" y="60">StdDev: 0.04</text>
      </g>
      <g transform="translate( 480.56, -292.50 )">
        <rect width="70" height="63" class="statbox"/>
        <text x="3" y="12">Interval: 45</text>
        <text x="3" y="24">Mean: 22.19</text>
        <text x="3" y="36">Min: 22.10</text>
        <text x="3" y="48">Max: 22.22</text>
        <text x="3" y="60">StdDev: 0.02</text>
      </g>
      <g transform="translate( 505, -222.5 )">
        <rect width="70" height="63" class="statbox"/>
        <text x="3" y="12">Interval: 50</text>
        <text x="3" y="24">Mean: 19.98</text>
        <text x="3" y="36">Min: 19.90</text>
        <text x="3" y="48">Max: 20.00</text>
        <text x="3" y="60">StdDev: 0.03</text>
      </g>
    </g>
    <g id="points1" class="detail" visibility="hidden">
      <g transform="translate( 50, -292.50 )">
        <rect width="70" height="63" class="statbox"/>
        <text x="3" y="12">Interval: 5</text>
        <text x="3" y="24">Mean: 29.20</text>
        <text x="3" y="36">Min: 14.96</text>
        <text x="3" y="48">Max: 45.96</text>
        <text x="3" y="60">StdDev: 9.37</text>
      </g>
      <g transform="translate( 64.44, -222.5 )">
        <rect width="70" height="63" class="statbox"/>
        <text x="3" y="12">Interval: 10</text>
        <text x="3" y="24">Mean: 28.54</text>
        <text x="3" y="36">Min: 16.76</text>
        <text x="3" y="48">Max: 51.93</text>
        <text x="3" y="60">StdDev: 9.12</text>
      </g>
      <g transform="translate( 123.89, -292.50 )">
        <rect width="70" height="63" class="statbox"/>
        <text x="3" y="12">Interval: 15</text>
        <text x="3" y="24">Mean: 23.75</text>
        <text x="3" y="36">Min: 16.57</text>
        <text x="3" y="48">Max: 34.15</text>
        <text x="3" y="60">StdDev: 4.93</text>
      </g>
      <g transform="translate( 183.33, -222.5 )">
        <rect width="70" height="63" class="statbox"/>
        <text x="3" y="12">Interval: 20</text>
        <text x="3" y="24">Mean: 30.71</text>
        <text x="3" y="36">Min: 14.45</text>
        <text x="3" y="48">Max: 46.90</text>
        <text x="3" y="60">StdDev: 10.14</text>
      </g>
      <g transform="translate( 242.78, -292.50 )">
        <rect width="70" height="63" class="statbox"/>
        <text x="3" y="12">Interval: 25</text>
        <text x="3" y="24">Mean: 22.34</text>
        <text x="3" y="36">Min: 13.51</text>
        <text x="3" y="48">Max: 34.47</text>
        <text x="3" y="60">StdDev: 5.64</text>
      </g>
      <g transform="translate( 302.22, -222.5 )">
        <rect width="70" height="63" class="statbox"/>
        <text x="3" y="12">Interval: 30</text>
        <text x="3" y="24">Mean: 27.57</text>
        <text x="3" y="36">Min: 21.74</text>
        <text x="3" y="48">Max: 32.70</text>
        <text x="3" y="60">StdDev: 2.92</text>
      </g>
      <g transform="translate( 361.67, -292.50 )">
        <rect width="70" height="63" class="statbox"/>
        <text x="3" y="12">Interval: 35</text>
        <text x="3" y="24">Mean: 24.80</text>
        <text x="3" y="36">Min: 17.68</text>
        <text x="3" y="48">Max: 28.40</text>
        <text x="3" y="60">StdDev: 3.37</text>
      </g>
      <g transform="translate( 421.11, -222.5 )">
        <rect width="70" height="63" class="statbox"/>
        <text x="3" y="12">Interval: 40</text>
        <text x="3" y="24">Mean: 22.76</text>
        <text x="3" y="36">Min: 17.97</text>
        <text x="3" y="48">Max: 24.80</text>
        <text x="3" y="60">StdDev: 2.08</text>
      </g>
      <g transform="translate( 480.56, -292.50 )">
        <rect width="70" height="63" class="statbox"/>
        <text x="3" y="12">Interval: 45</text>
        <text x="3" y="24">Mean: 21.27</text>
        <text x="3" y="36">Min: 19.03</text>
        <text x="3" y="48">Max: 22.10</text>
        <text x="3" y="60">StdDev: 0.93</text>
      </g>
      <g transform="translate( 505, -222.5 )">
        <rect width="70" height="63" class="statbox"/>
        <text x="3" y="12">Interval: 50</text>
        <text x="3" y="24">Mean: 19.39</text>
        <text x="3" y="36">Min: 15.11</text>
        <text x="3" y="48">Max: 20.00</text>
        <text x="3" y="60">StdDev: 1.00</text>
      </g>
    </g>
    <g id="points2" class="detail" visibility="hidden">
      <g transform="translate( 50, -292.50 )">
        <rect width="70" height="63" class="statbox"/>
        <text x="3" y="12">Interval: 5</text>
        <text x="3" y="24">Mean: 39.26</text>
        <text x="3" y="36">Min: 27.55</text>
        <text x="3" y="48">Max: 52.47</text>
        <text x="3" y="60">StdDev: 6.01</text>
      </g>
      <g transform="translate( 64.44, -222.5 )">
        <rect width="70" height="63" class="statbox"/>
        <text x="3" y="12">Interval: 10</text>
        <text x="3" y="24">Mean: 37.90</text>
        <text x="3" y="36">Min: 23.38</text>
        <text x="3" y="48">Max: 54.13</text>
        <text x="3" y="60">StdDev: 8.22</text>
      </g>
      <g transform="translate( 123.89, -292.50 )">
        <rect width="70" height="63" class="statbox"/>
        <text x="3" y="12">Interval: 15</text>
        <text x="3" y="24">Mean: 36.79</text>
        <text x="3" y="36">Min: 25.64</text>
        <text x="3" y="48">Max: 51.90</text>
        <text x="3" y="60">StdDev: 7.58</text>
      </g>
      <g transform="translate( 183.33, -222.5 )">
        <rect width="70" height="63" class="statbox"/>
        <text x="3" y="12">Interval: 20</text>
        <text x="3" y="24">Mean: 34.34</text>
        <text x="3" y="36">Min: 25.95</text>
        <text x="3" y="48">Max: 45.10</text>
        <text x="3" y="60">StdDev: 6.05</text>
      </g>
      <g transform="translate( 242.78, -292.50 )">
        <rect width="70" height="63" class="statbox"/>
        <text x="3" y="12">Interval: 25</text>
        <text x="3" y="24">Mean: 31.06</text>
        <text x="3" y="36">Min: 22.59</text>
        <text x="3" y="48">Max: 36.27</text>
        <text x="3" y="60">StdDev: 5.09</text>
      </g>
      <g transform="translate( 302.22, -222.5 )">
        <rect width="70" height="63" class="statbox"/>
        <text x="3" y="12">Interval: 30</text>
        <text x="3" y="24">Mean: 31.13</text>
        <text x="3" y="36">Min: 29.53</text>
        <text x="3" y="48">Max: 31.37</text>
        <text x="3" y="60">StdDev: 0.33</text>
      </g>
      <g transform="translate( 361.67, -292.50 )">
        <rect width="70" height="63" class="statbox"/>
        <text x="3" y="12">Interval: 35</text>
        <text x="3" y="24">Mean: 27.48</text>
        <text x="3" y="36">Min: 26.68</text>
        <text x="3" y="48">Max: 27.75</text>
        <text x="3" y="60">StdDev: 0.27</text>
      </g>
      <g transform="translate( 421.11, -222.5 )">
        <rect width="70" height="63" class="statbox"/>
        <text x="3" y="12">Interval: 40</text>
        <text x="3" y="24">Mean: 24.03</text>
        <text x="3" y="36">Min: 23.40</text>
        <text x="3" y="48">Max: 24.43</text>
        <text x="3" y="60">StdDev: 0.28</text>
      </g>
      <g transform="translate( 480.56, -292.50 )">
        <rect width="70" height="63" class="statbox"/>
        <text x="3" y="12">Interval: 45</text>
        <text x="3" y="24">Mean: 20.87</text>
        <text x="3" y="36">Min: 20.79</text>
        <text x="3" y="48">Max: 20.93</text>
        <text x="3" y="60">StdDev: 0.04</text>
      </g>
      <g transform="translate( 505, -222.5 )">
        <rect width="70" height="63" class="statbox"/>
        <text x="3" y="12">Interval: 50</text>
        <text x="3" y="24">Mean: 19.21</text>
        <text x="3" y="36">Min: 19.12</text>
        <text x="3" y="48">Max: 19.30</text>
        <text x="3" y="60">StdDev: 0.04</text>
      </g>
    </g>
  </g>
  <g transform="translate(450,50)"
     onload="show( document.getElementById('instructions') )">
    <rect x="0" y="0" width="105" height="49" class="legend_bg"/>
    <rect x="5" y="5" width="10" height="10" class="legend0" onclick="showdata(0)"/>
    <text x="20" y="14" class="legend">Batik 1.8</text>
    <rect x="5" y="20" width="10" height="10" class="legend1" onclick="showdata(1)"/>
    <text x="20" y="29" class="legend">Firefox 3.5.3</text>
    <rect x="5" y="35" width="10" height="10" class="legend2" onclick="showdata(2)"/>
    <text x="20" y="44" class="legend">Opera 10.00</text>
    <text x="-15" y="61" id="instructions" visibility="hidden">Click colored blocks for detail</text>
  </g>
</svg>
